<svg width="33" height="33" viewBox="0 0 33 33" fill="none" xmlns="http://www.w3.org/2000/svg">
<path d="M10.9267 10.0701C11.2028 10.0701 11.4267 9.84621 11.4267 9.57007C11.4267 9.29393 11.2028 9.07007 10.9267 9.07007C10.6505 9.07007 10.4267 9.29393 10.4267 9.57007C10.4267 9.84621 10.6505 10.0701 10.9267 10.0701Z" fill="#545454"/>
<path d="M10.9267 11.8833V21.8699M22.5733 21.8699V15.4633C22.5716 14.4348 22.1622 13.4489 21.435 12.7216C20.7077 11.9944 19.7218 11.585 18.6933 11.5833C17.6637 11.5833 16.6761 11.9918 15.9474 12.7193C15.2187 13.4467 14.8084 14.4336 14.8067 15.4633M14.8067 15.4633V21.8699M14.8067 15.4633V11.8833" stroke="#545454" stroke-linecap="round" stroke-linejoin="round"/>
<path d="M27.5 4.26343H5.49999C5.14637 4.26343 4.80723 4.4039 4.55718 4.65395C4.30713 4.904 4.16666 5.24314 4.16666 5.59676V27.5968C4.16666 27.9504 4.30713 28.2895 4.55718 28.5396C4.80723 28.7896 5.14637 28.9301 5.49999 28.9301H27.5C27.8536 28.9301 28.1928 28.7896 28.4428 28.5396C28.6928 28.2895 28.8333 27.9504 28.8333 27.5968V5.59676C28.8333 5.24314 28.6928 4.904 28.4428 4.65395C28.1928 4.4039 27.8536 4.26343 27.5 4.26343Z" stroke="#545454" stroke-linecap="round" stroke-linejoin="round"/>
</svg>
