<svg width="32" height="33" viewBox="0 0 32 33" fill="none" xmlns="http://www.w3.org/2000/svg">
<path d="M4.98665 4.39917C4.63303 4.39917 4.29389 4.53965 4.04384 4.78969C3.7938 5.03974 3.65332 5.37888 3.65332 5.7325V27.7325C3.65332 28.0861 3.7938 28.4253 4.04384 28.6753C4.29389 28.9254 4.63303 29.0658 4.98665 29.0658H27.0133C27.3669 29.0658 27.7061 28.9254 27.9561 28.6753C28.2062 28.4253 28.3467 28.0861 28.3467 27.7325V5.7325C28.3467 5.37888 28.2062 5.03974 27.9561 4.78969C27.7061 4.53965 27.3669 4.39917 27.0133 4.39917H4.98665Z" stroke="#545454" stroke-linecap="round" stroke-linejoin="round"/>
<path d="M27.5 16.8564C27.5 18.1577 27.3906 19.3218 27.2199 20.148C27.1532 20.4707 27.0803 20.726 27.0081 20.9123C26.9359 20.7261 26.8631 20.4708 26.7964 20.1482C26.6257 19.3221 26.5164 18.158 26.5164 16.8564C26.5164 15.5548 26.6257 14.3907 26.7965 13.5646C26.8631 13.2421 26.936 12.9869 27.0081 12.8007C27.0803 12.9869 27.1531 13.2421 27.2198 13.5645C27.3906 14.3906 27.5 15.5547 27.5 16.8564Z" stroke="#545454"/>
<path d="M24.9691 16.8565C24.9691 18.2708 24.6661 19.5268 24.2006 20.4109C23.7229 21.3181 23.1496 21.7129 22.6487 21.7129C22.1478 21.7129 21.5745 21.3181 21.0969 20.4109C20.6314 19.5268 20.3284 18.2708 20.3284 16.8565C20.3284 15.4421 20.6313 14.1861 21.0968 13.302C21.5744 12.3948 22.1476 12 22.6485 12C23.1495 12 23.7229 12.3947 24.2005 13.3018C24.666 14.1858 24.9691 15.4417 24.9691 16.8565Z" stroke="#545454"/>
<path d="M18.7812 16.8565C18.7812 19.7267 16.4756 22.0461 13.6407 22.0461C10.8058 22.0461 8.5 19.7261 8.5 16.8565C8.5 13.9868 10.8057 11.6667 13.6407 11.6667C16.4757 11.6667 18.7812 13.9863 18.7812 16.8565Z" stroke="#545454"/>
</svg>
