<svg width="32" height="33" viewBox="0 0 32 33" fill="none" xmlns="http://www.w3.org/2000/svg">
<path d="M4.98665 4.39917C4.63303 4.39917 4.29389 4.53965 4.04384 4.78969C3.7938 5.03974 3.65332 5.37888 3.65332 5.7325V27.7325C3.65332 28.0861 3.7938 28.4253 4.04384 28.6753C4.29389 28.9254 4.63303 29.0658 4.98665 29.0658H27.0133C27.3669 29.0658 27.7061 28.9254 27.9561 28.6753C28.2062 28.4253 28.3467 28.0861 28.3467 27.7325V5.7325C28.3467 5.37888 28.2062 5.03974 27.9561 4.78969C27.7061 4.53965 27.3669 4.39917 27.0133 4.39917H4.98665Z" stroke="#545454" stroke-linecap="round" stroke-linejoin="round"/>
<path d="M25.5 16.8564C25.5 18.1577 25.3906 19.3218 25.2199 20.148C25.1532 20.4707 25.0803 20.726 25.0081 20.9123C24.9359 20.7261 24.8631 20.4708 24.7964 20.1482C24.6257 19.3221 24.5164 18.158 24.5164 16.8564C24.5164 15.5548 24.6257 14.3907 24.7965 13.5646C24.8631 13.2421 24.936 12.9869 25.0081 12.8007C25.0803 12.9869 25.1531 13.2421 25.2198 13.5645C25.3906 14.3906 25.5 15.5547 25.5 16.8564Z" stroke="#545454"/>
<path d="M22.9689 16.8565C22.9689 18.2708 22.666 19.5268 22.2005 20.4109C21.7228 21.3181 21.1495 21.7129 20.6486 21.7129C20.1477 21.7129 19.5744 21.3181 19.0967 20.4109C18.6312 19.5268 18.3282 18.2708 18.3282 16.8565C18.3282 15.4421 18.6312 14.1861 19.0966 13.302C19.5742 12.3948 20.1475 12 20.6484 12C21.1494 12 21.7227 12.3947 22.2004 13.3018C22.6659 14.1858 22.9689 15.4417 22.9689 16.8565Z" stroke="#545454"/>
<path d="M16.7812 16.8565C16.7812 19.7267 14.4756 22.0461 11.6407 22.0461C8.80583 22.0461 6.5 19.7261 6.5 16.8565C6.5 13.9868 8.80567 11.6667 11.6407 11.6667C14.4757 11.6667 16.7812 13.9863 16.7812 16.8565Z" stroke="#545454"/>
</svg>
