<svg width="64" height="64" viewBox="0 0 64 64" fill="none" xmlns="http://www.w3.org/2000/svg">
<mask id="mask0_1656_1109" style="mask-type:alpha" maskUnits="userSpaceOnUse" x="0" y="0" width="64" height="64">
<rect width="64" height="64" fill="#D9D9D9"/>
</mask>
<g mask="url(#mask0_1656_1109)">
<path d="M17.9556 56L17.3334 51.1111L25.5112 28.5777C26.0593 29.1111 26.663 29.5518 27.3222 29.9C27.9815 30.2481 28.6815 30.5333 29.4222 30.7555L21.5111 52.5333L17.9556 56ZM46.0445 56L42.489 52.5333L34.4889 30.8C35.2297 30.5778 35.9371 30.2926 36.6112 29.9444C37.2852 29.5963 37.8963 29.1555 38.4444 28.6222L46.6667 51.1111L46.0445 56ZM32 29.3333C29.7778 29.3333 27.8889 28.5556 26.3334 27C24.7778 25.4444 24 23.5556 24 21.3333C24 19.5111 24.5297 17.8926 25.5889 16.4778C26.6482 15.063 28.0445 14.1333 29.7778 13.6889V8H34.2222V13.6889C35.9556 14.1333 37.3519 15.063 38.4112 16.4778C39.4704 17.8926 40 19.5111 40 21.3333C40 23.5556 39.2223 25.4444 37.6667 27C36.1112 28.5556 34.2223 29.3333 32 29.3333ZM32 24.8889C32.9926 24.8889 33.8334 24.5445 34.5223 23.8556C35.2112 23.1667 35.5556 22.3259 35.5556 21.3333C35.5556 20.3408 35.2112 19.5 34.5223 18.8111C33.8334 18.1222 32.9926 17.7777 32 17.7777C31.0075 17.7777 30.1667 18.1222 29.4778 18.8111C28.7889 19.5 28.4444 20.3408 28.4444 21.3333C28.4444 22.3259 28.7889 23.1667 29.4778 23.8556C30.1667 24.5445 31.0075 24.8889 32 24.8889Z" fill="#151515"/>
</g>
</svg>
