<svg width="35" height="35" viewBox="0 0 35 35" fill="none" xmlns="http://www.w3.org/2000/svg">
<path d="M18.5 33.8799C18.25 33.9354 18 33.9632 17.75 33.9632H17C14.6945 33.9632 12.5278 33.5257 10.5 32.6507C8.47226 31.7757 6.70837 30.5882 5.20837 29.0882C3.70837 27.5882 2.52087 25.8243 1.64587 23.7966C0.770874 21.7688 0.333374 19.6021 0.333374 17.2966C0.333374 14.991 0.770874 12.8243 1.64587 10.7965C2.52087 8.76877 3.70837 7.00488 5.20837 5.50488C6.70837 4.00488 8.47226 2.81738 10.5 1.94238C12.5278 1.06738 14.6945 0.629883 17 0.629883C19.3056 0.629883 21.4723 1.06738 23.5 1.94238C25.5278 2.81738 27.2917 4.00488 28.7917 5.50488C30.2917 7.00488 31.4792 8.76877 32.3542 10.7965C33.2292 12.8243 33.6667 14.991 33.6667 17.2966V18.0466C33.6667 18.2966 33.6389 18.5466 33.5834 18.7966L30.3334 17.7966V17.2966C30.3334 13.5743 29.0417 10.4216 26.4584 7.83822C23.875 5.25488 20.7223 3.96322 17 3.96322C13.2778 3.96322 10.125 5.25488 7.54171 7.83822C4.95837 10.4216 3.66671 13.5743 3.66671 17.2966C3.66671 21.0188 4.95837 24.1716 7.54171 26.7549C10.125 29.3382 13.2778 30.6299 17 30.6299H17.5L18.5 33.8799ZM31.2084 34.7966L24.0834 27.6716L22 33.9632L17 17.2966L33.6667 22.2966L27.375 24.3799L34.5 31.5049L31.2084 34.7966Z" fill="#1C1B1F"/>
</svg>
