<svg width="64" height="64" viewBox="0 0 64 64" fill="none" xmlns="http://www.w3.org/2000/svg">
<mask id="mask0_1656_1102" style="mask-type:alpha" maskUnits="userSpaceOnUse" x="0" y="0" width="64" height="64">
<rect width="64" height="64" fill="#D9D9D9"/>
</mask>
<g mask="url(#mask0_1656_1102)">
<path d="M11.6666 31.9333L22.9334 43.2C23.363 43.6296 23.5704 44.1482 23.5556 44.7556C23.5408 45.363 23.3186 45.8815 22.8889 46.3111C22.4593 46.7407 21.9334 46.9555 21.3112 46.9555C20.689 46.9555 20.163 46.7407 19.7334 46.3111L6.88891 33.4667C6.65188 33.2296 6.48522 32.9852 6.38891 32.7333C6.29264 32.4815 6.24451 32.2074 6.24451 31.9111C6.24451 31.6148 6.29264 31.3407 6.38891 31.0889C6.48522 30.837 6.65188 30.5926 6.88891 30.3555L19.8667 17.3777C20.3112 16.9333 20.8408 16.7111 21.4556 16.7111C22.0704 16.7111 22.6001 16.9333 23.0445 17.3777C23.489 17.8222 23.7112 18.3518 23.7112 18.9667C23.7112 19.5815 23.489 20.1111 23.0445 20.5555L11.6666 31.9333ZM52.3334 31.8889L41.0667 20.6222C40.6371 20.1925 40.4297 19.674 40.4445 19.0667C40.4593 18.4592 40.6815 17.9407 41.1112 17.5111C41.5408 17.0815 42.0667 16.8667 42.6889 16.8667C43.3111 16.8667 43.8371 17.0815 44.2667 17.5111L57.1112 30.3555C57.3482 30.5926 57.5149 30.837 57.6112 31.0889C57.7074 31.3407 57.7556 31.6148 57.7556 31.9111C57.7556 32.2074 57.7074 32.4815 57.6112 32.7333C57.5149 32.9852 57.3482 33.2296 57.1112 33.4667L44.1334 46.4445C43.6889 46.8889 43.1704 47.1 42.5778 47.0778C41.9852 47.0556 41.4667 46.8222 41.0222 46.3778C40.5778 45.9333 40.3556 45.4037 40.3556 44.7889C40.3556 44.1741 40.5778 43.6444 41.0222 43.2L52.3334 31.8889Z" fill="#151515"/>
</g>
</svg>
