<svg width="64" height="64" viewBox="0 0 64 64" fill="none" xmlns="http://www.w3.org/2000/svg">
<mask id="mask0_1656_1095" style="mask-type:alpha" maskUnits="userSpaceOnUse" x="0" y="0" width="64" height="64">
<rect width="64" height="64" fill="#D9D9D9"/>
</mask>
<g mask="url(#mask0_1656_1095)">
<path d="M15.5555 53.3334C13.4815 53.3334 11.7037 52.5926 10.2222 51.1112C8.74073 49.6296 8 47.8519 8 45.7778C8 43.7037 8.74073 41.926 10.2222 40.4445C11.7037 38.963 13.4815 38.2223 15.5555 38.2223C17.6296 38.2223 19.4074 38.963 20.8889 40.4445C22.3703 41.926 23.1111 43.7037 23.1111 45.7778C23.1111 47.8519 22.3703 49.6296 20.8889 51.1112C19.4074 52.5926 17.6296 53.3334 15.5555 53.3334ZM48.4445 53.3334C46.3704 53.3334 44.5926 52.5926 43.1111 51.1112C41.6297 49.6296 40.8889 47.8519 40.8889 45.7778C40.8889 43.7037 41.6297 41.926 43.1111 40.4445C44.5926 38.963 46.3704 38.2223 48.4445 38.2223C50.5482 38.2223 52.3333 38.963 53.8 40.4445C55.2667 41.926 56 43.7037 56 45.7778C56 47.8519 55.2667 49.6296 53.8 51.1112C52.3333 52.5926 50.5482 53.3334 48.4445 53.3334ZM32 25.7778C29.9259 25.7778 28.1481 25.037 26.6667 23.5556C25.1852 22.0741 24.4445 20.2963 24.4445 18.2222C24.4445 16.1482 25.1852 14.3704 26.6667 12.8889C28.1481 11.4074 29.9259 10.6667 32 10.6667C34.0741 10.6667 35.8519 11.4074 37.3333 12.8889C38.8148 14.3704 39.5555 16.1482 39.5555 18.2222C39.5555 20.2963 38.8148 22.0741 37.3333 23.5556C35.8519 25.037 34.0741 25.7778 32 25.7778Z" fill="#151515"/>
</g>
</svg>
