<svg width="64" height="64" viewBox="0 0 64 64" fill="none" xmlns="http://www.w3.org/2000/svg">
<mask id="mask0_1681_80" style="mask-type:alpha" maskUnits="userSpaceOnUse" x="0" y="0" width="64" height="64">
<rect width="64" height="64" fill="#D9D9D9"/>
</mask>
<g mask="url(#mask0_1681_80)">
<path d="M42.9334 33.9555L31.9556 23.2444C30.6275 21.978 29.5029 20.5745 28.5818 19.0338C27.6606 17.493 27.2001 15.8151 27.2001 14C27.2001 11.6148 28.0038 9.57405 29.6112 7.87778C31.2186 6.18147 33.2001 5.33331 35.5556 5.33331C37.0371 5.33331 38.4001 5.69258 39.6446 6.41111C40.889 7.1296 41.9853 8.04442 42.9334 9.15558C43.8816 8.04442 44.9778 7.1296 46.2223 6.41111C47.4667 5.69258 48.8297 5.33331 50.3112 5.33331C52.6668 5.33331 54.6482 6.18147 56.2556 7.87778C57.863 9.57405 58.6667 11.6148 58.6667 14C58.6667 15.8122 58.2075 17.4875 57.289 19.0258C56.3705 20.5642 55.252 21.9703 53.9334 23.2444L42.9334 33.9555ZM42.9334 27.7778L50.689 20.1111C51.5666 19.2413 52.3748 18.3144 53.1138 17.3302C53.8528 16.346 54.2224 15.2359 54.2224 14C54.2224 12.8444 53.852 11.8518 53.1112 11.0222C52.3705 10.1925 51.4371 9.77771 50.3112 9.77771C49.5112 9.77771 48.7668 9.98142 48.0779 10.3888C47.389 10.7963 46.7853 11.3185 46.2667 11.9555L42.9334 16L39.6001 11.9555C39.0816 11.3185 38.4779 10.7963 37.789 10.3888C37.1001 9.98142 36.3556 9.77771 35.5556 9.77771C34.4297 9.77771 33.4964 10.1925 32.7556 11.0222C32.0149 11.8518 31.6445 12.8444 31.6445 14C31.6445 15.2359 32.014 16.346 32.753 17.3302C33.492 18.3144 34.3003 19.2413 35.1779 20.1111L42.9334 27.7778ZM17.5556 50.2222L37.3779 55.9111L53.689 50.8C53.6149 50.0741 53.2779 49.463 52.6779 48.9666C52.0779 48.4703 51.3779 48.2222 50.5779 48.2222H36.8001C35.926 48.2222 35.1408 48.1703 34.4446 48.0666C33.7482 47.963 33.0519 47.7926 32.3556 47.5555L26.0223 45.5778L27.3556 41.1333L33.3334 43.1556C33.9112 43.3482 34.5408 43.4963 35.2223 43.6C35.9038 43.7037 36.7408 43.763 37.7334 43.7778H40.2223C40.2223 42.9926 39.9667 42.2963 39.4556 41.6889C38.9445 41.0815 38.326 40.637 37.6001 40.3555L22.7112 34.7555H17.5556V50.2222ZM2.66675 58.6667V30.3111H22.6667C22.9285 30.3111 23.1902 30.337 23.452 30.3889C23.7136 30.4407 23.963 30.5111 24.2001 30.6L39.1112 36.1778C40.726 36.7704 42.0779 37.7481 43.1667 39.1111C44.2556 40.4741 44.8001 42.0296 44.8001 43.7778H50.5779C52.8248 43.7778 54.7346 44.5704 56.3075 46.1556C57.8803 47.7408 58.6667 49.6889 58.6667 52V54.0444L37.6446 60.5333L17.5556 54.8444V58.6667H2.66675ZM7.11115 54.2222H13.0667V34.7555H7.11115V54.2222Z" fill="#1C1B1F"/>
</g>
</svg>
