<svg width="32" height="32" viewBox="0 0 32 32" fill="none" xmlns="http://www.w3.org/2000/svg">
<path d="M4.98665 3.66667C4.63303 3.66667 4.29389 3.80715 4.04384 4.0572C3.7938 4.30724 3.65332 4.64638 3.65332 5.00001V27C3.65332 27.3536 3.7938 27.6928 4.04384 27.9428C4.29389 28.1929 4.63303 28.3333 4.98665 28.3333H27.0133C27.3669 28.3333 27.7061 28.1929 27.9561 27.9428C28.2062 27.6928 28.3467 27.3536 28.3467 27V5.00001C28.3467 4.64638 28.2062 4.30724 27.9561 4.0572C27.7061 3.80715 27.3669 3.66667 27.0133 3.66667H4.98665Z" fill="#EDF5FF" stroke="#545454" stroke-linecap="round" stroke-linejoin="round"/>
<path d="M16 28.3333V12.38C16 11.9356 16.0877 11.4955 16.258 11.085C16.4282 10.6745 16.6778 10.3016 16.9924 9.98763C17.3069 9.67368 17.6803 9.42485 18.0912 9.25538C18.502 9.08591 18.9423 8.99913 19.3867 9.00001C21.0467 9.00001 22.0867 9.49334 22.8 10.4133M13.1334 15.5267H19.9" stroke="#545454" stroke-linecap="round" stroke-linejoin="round"/>
</svg>
