<svg width="32" height="32" viewBox="0 0 32 32" fill="none" xmlns="http://www.w3.org/2000/svg">
<path d="M27 3.66667H5.00002C4.6464 3.66667 4.30726 3.80715 4.05721 4.0572C3.80716 4.30724 3.66669 4.64638 3.66669 5.00001V27C3.66669 27.3536 3.80716 27.6928 4.05721 27.9428C4.30726 28.1929 4.6464 28.3333 5.00002 28.3333H27C27.3536 28.3333 27.6928 28.1929 27.9428 27.9428C28.1929 27.6928 28.3334 27.3536 28.3334 27V5.00001C28.3334 4.64638 28.1929 4.30724 27.9428 4.0572C27.6928 3.80715 27.3536 3.66667 27 3.66667Z" fill="#E6F7FF" stroke="#545454" stroke-linecap="round" stroke-linejoin="round"/>
<path d="M10.4267 9.47333C10.7028 9.47333 10.9267 9.24947 10.9267 8.97333C10.9267 8.69719 10.7028 8.47333 10.4267 8.47333C10.1506 8.47333 9.9267 8.69719 9.9267 8.97333C9.9267 9.24947 10.1506 9.47333 10.4267 9.47333Z" fill="#545454"/>
<path d="M10.4267 11.2867V21.2733M22.0734 21.2733V14.8667C22.0716 13.8382 21.6623 12.8523 20.935 12.125C20.2077 11.3978 19.2219 10.9884 18.1934 10.9867C17.1637 10.9867 16.1761 11.3952 15.4474 12.1227C14.7187 12.8501 14.3085 13.837 14.3067 14.8667M14.3067 14.8667V21.2733M14.3067 14.8667V11.2867" stroke="#545454" stroke-linecap="round" stroke-linejoin="round"/>
</svg>
