<svg width="32" height="32" viewBox="0 0 32 32" fill="none" xmlns="http://www.w3.org/2000/svg">
<path d="M27.0334 3.66667H4.96669C4.61887 3.67537 4.28824 3.81968 4.04535 4.06879C3.80247 4.3179 3.66658 4.65208 3.66669 5V27.0667C3.66669 27.4203 3.80716 27.7594 4.05721 28.0095C4.30726 28.2595 4.6464 28.4 5.00002 28.4H27.0667C27.4203 28.4 27.7594 28.2595 28.0095 28.0095C28.2595 27.7594 28.4 27.4203 28.4 27.0667V4.96667C28.3957 4.79156 28.3569 4.61901 28.2859 4.4589C28.2149 4.29878 28.113 4.15423 27.986 4.0335C27.8591 3.91277 27.7097 3.81824 27.5462 3.7553C27.3827 3.69235 27.2085 3.66224 27.0334 3.66667Z" stroke="#545454" stroke-linecap="round" stroke-linejoin="round"/>
<rect width="24" height="24" transform="translate(4 4)" fill="#F6FFF7"/>
<path d="M16.0028 7C11.0254 7.00544 6.99456 11.0425 7.00001 16.0173C7.00164 17.5268 7.38283 19.0118 8.10855 20.3356L7.41754 24.5799L11.6641 23.8893C16.0237 26.2793 21.4973 24.685 23.8886 20.3273C26.2799 15.9695 24.6852 10.4997 20.3251 8.10921C19.0004 7.3829 17.5137 7.00145 16.0028 7ZM11.5008 11.0894H13.9549C14.0659 11.0894 14.1725 11.1335 14.251 11.212C14.3295 11.2905 14.3737 11.397 14.3737 11.508C14.3599 12.0662 14.4538 12.6218 14.6501 13.1446C14.7346 13.3196 14.7532 13.5192 14.7024 13.7068C14.6517 13.8944 14.5349 14.0574 14.3737 14.1659L13.5151 15.0031C13.8958 15.746 14.3936 16.423 14.9893 17.008C15.5699 17.6131 16.2444 18.1206 16.9869 18.5107L17.8245 17.6526C18.2433 17.234 18.4359 17.234 18.8464 17.3764C19.3694 17.5725 19.9253 17.6663 20.4838 17.6526C20.5933 17.6577 20.6969 17.7034 20.7743 17.7809C20.8518 17.8583 20.8975 17.9618 20.9026 18.0712V20.524C20.8975 20.6334 20.8518 20.7369 20.7743 20.8143C20.6969 20.8917 20.5933 20.9375 20.4838 20.9426C18.0203 20.8353 15.6852 19.8146 13.9339 18.0795C12.1953 16.3311 11.1735 13.9961 11.0694 11.5331C11.0704 11.4179 11.1158 11.3075 11.1961 11.2249C11.2765 11.1422 11.3856 11.0937 11.5008 11.0894Z" stroke="#545454" stroke-linecap="round" stroke-linejoin="round"/>
</svg>
