<svg width="32" height="32" viewBox="0 0 32 32" fill="none" xmlns="http://www.w3.org/2000/svg">
<path d="M4.98665 3.66666C4.63303 3.66666 4.29389 3.80713 4.04384 4.05718C3.7938 4.30723 3.65332 4.64637 3.65332 4.99999V27C3.65332 27.3536 3.7938 27.6928 4.04384 27.9428C4.29389 28.1928 4.63303 28.3333 4.98665 28.3333H27.0133C27.3669 28.3333 27.7061 28.1928 27.9561 27.9428C28.2062 27.6928 28.3467 27.3536 28.3467 27V4.99999C28.3467 4.64637 28.2062 4.30723 27.9561 4.05718C27.7061 3.80713 27.3669 3.66666 27.0133 3.66666H4.98665Z" fill="#FFFAF5" stroke="#545454" stroke-linecap="round" stroke-linejoin="round"/>
<path d="M26.7049 6.8981L16 17.5833L5.2951 6.8981" stroke="#545454" stroke-linecap="round" stroke-linejoin="round"/>
</svg>
