<svg width="32" height="32" viewBox="0 0 32 32" fill="none" xmlns="http://www.w3.org/2000/svg">
<path d="M4.98665 3.66666C4.63303 3.66666 4.29389 3.80713 4.04384 4.05718C3.7938 4.30723 3.65332 4.64637 3.65332 4.99999V27C3.65332 27.3536 3.7938 27.6928 4.04384 27.9428C4.29389 28.1928 4.63303 28.3333 4.98665 28.3333H27.0133C27.3669 28.3333 27.7061 28.1928 27.9561 27.9428C28.2062 27.6928 28.3467 27.3536 28.3467 27V4.99999C28.3467 4.64637 28.2062 4.30723 27.9561 4.05718C27.7061 3.80713 27.3669 3.66666 27.0133 3.66666H4.98665Z" fill="#FFF5F5" stroke="#545454" stroke-linecap="round" stroke-linejoin="round"/>
<path d="M13.1082 9H9.61414C9.45013 9.00611 9.29479 9.07504 9.18041 9.19245C9.06603 9.30986 9.00142 9.46671 9 9.63042C9.14825 13.1299 10.6029 16.4477 13.0784 18.932C15.5717 21.3973 18.8964 22.8476 22.4037 23C22.5595 22.9928 22.707 22.9278 22.8173 22.8178C22.9276 22.7078 22.9927 22.5607 23 22.4053V18.9201C22.9927 18.7647 22.9276 18.6176 22.8173 18.5076C22.707 18.3976 22.5595 18.3326 22.4037 18.3254C21.6086 18.3449 20.8171 18.2116 20.0724 17.9329C19.4881 17.7307 19.2138 17.7307 18.6175 18.3254L17.425 19.5446C16.3679 18.9903 15.4075 18.2693 14.5809 17.4095C13.7327 16.5783 13.0241 15.6164 12.4821 14.5607L13.7044 13.3713C13.934 13.2171 14.1002 12.9854 14.1725 12.7189C14.2448 12.4524 14.2183 12.1688 14.098 11.9201C13.8185 11.1773 13.6849 10.3879 13.7044 9.59473C13.7044 9.437 13.6416 9.28573 13.5298 9.17419C13.418 9.06266 13.2663 9 13.1082 9Z" stroke="#545454" stroke-linecap="round" stroke-linejoin="round"/>
</svg>
