<svg width="40" height="40" viewBox="0 0 40 40" fill="none" xmlns="http://www.w3.org/2000/svg">
<path fill-rule="evenodd" clip-rule="evenodd" d="M3 0C1.34315 0 0 1.34315 0 3V37C0 38.6569 1.34315 40 3 40H37C38.6569 40 40 38.6569 40 37V3C40 1.34315 38.6569 0 37 0H3ZM12.6625 16.1738V4.8H10.4L10.4 35.9657H12.6625V24.6873L17.5899 36L19.3248 36L22.5244 36L27.4519 24.6873V35.9657H29.7143V4.80001L27.4519 4.80001V16.1738L22.5139 4.83693L20.8 4.83692L17.6004 4.83692L12.6625 16.1738ZM24.3906 24.2399L20.0572 34.2999L16.1686 25.2727C16.6571 25.6002 17.1922 25.8603 17.7604 26.0422C19.1516 26.4876 20.6543 26.4369 22.0124 25.8986C22.929 25.5353 23.7415 24.965 24.3906 24.2399ZM24.9479 22.9459L26.0314 20.4307L25.1797 18.4536L24.0831 18.768C23.7915 17.7506 23.1561 16.8658 22.2852 16.2644C21.4144 15.663 20.3619 15.3822 19.3072 15.4698C18.2525 15.5573 17.2608 16.0079 16.501 16.7447C15.7413 17.4815 15.2605 18.4589 15.1406 19.5105C15.0208 20.562 15.2692 21.6226 15.8436 22.5114C16.418 23.4003 17.2829 24.0626 18.2908 24.3853C19.2988 24.708 20.3874 24.6712 21.3713 24.2813C22.3552 23.8913 23.1734 23.1722 23.6866 22.2466L24.9479 22.9459ZM23.7919 15.2318L20.0572 6.56148L16.6383 14.4984C17.4115 14.0723 18.271 13.81 19.1632 13.736C20.6191 13.6151 22.0718 14.0027 23.2738 14.8329C23.454 14.9573 23.6269 15.0905 23.7919 15.2318Z" fill="#000000"/>
</svg>
