<svg width="64" height="64" viewBox="0 0 64 64" fill="none" xmlns="http://www.w3.org/2000/svg">
<mask id="mask0_1674_58" style="mask-type:alpha" maskUnits="userSpaceOnUse" x="0" y="0" width="64" height="64">
<rect width="64" height="64" fill="#D9D9D9"/>
</mask>
<g mask="url(#mask0_1674_58)">
<path d="M12.4444 56C11.2444 56 10.2037 55.5593 9.3222 54.6778C8.44073 53.7963 8 52.7556 8 51.5556V12.4444C8 11.2444 8.44073 10.2037 9.3222 9.3222C10.2037 8.44073 11.2444 8 12.4444 8H31.0667V12.4444H12.4444V51.5556H51.5556V32.9333H56V51.5556C56 52.7556 55.5593 53.7963 54.6778 54.6778C53.7963 55.5593 52.7556 56 51.5556 56H12.4444ZM25.6 41.5555L22.4889 38.4L48.4445 12.4444H35.5111V8H56V28.4889H51.5556V15.5999L25.6 41.5555Z" fill="white"/>
<path d="M12.4444 56C11.2444 56 10.2037 55.5593 9.3222 54.6778C8.44073 53.7963 8 52.7556 8 51.5556V12.4444C8 11.2444 8.44073 10.2037 9.3222 9.3222C10.2037 8.44073 11.2444 8 12.4444 8H31.0667V12.4444H12.4444V51.5556H51.5556V32.9333H56V51.5556C56 52.7556 55.5593 53.7963 54.6778 54.6778C53.7963 55.5593 52.7556 56 51.5556 56H12.4444ZM25.6 41.5555L22.4889 38.4L48.4445 12.4444H35.5111V8H56V28.4889H51.5556V15.5999L25.6 41.5555Z" fill="white"/>
<path d="M12.4444 56C11.2444 56 10.2037 55.5593 9.3222 54.6778C8.44073 53.7963 8 52.7556 8 51.5556V12.4444C8 11.2444 8.44073 10.2037 9.3222 9.3222C10.2037 8.44073 11.2444 8 12.4444 8H31.0667V12.4444H12.4444V51.5556H51.5556V32.9333H56V51.5556C56 52.7556 55.5593 53.7963 54.6778 54.6778C53.7963 55.5593 52.7556 56 51.5556 56H12.4444ZM25.6 41.5555L22.4889 38.4L48.4445 12.4444H35.5111V8H56V28.4889H51.5556V15.5999L25.6 41.5555Z" fill="white"/>
</g>
</svg>
