<svg width="48" height="48" viewBox="0 0 48 48" fill="none" xmlns="http://www.w3.org/2000/svg">
<path d="M7.47998 5.5C6.94955 5.5 6.44084 5.71071 6.06577 6.08579C5.69069 6.46086 5.47998 6.96957 5.47998 7.5V40.5C5.47998 41.0304 5.69069 41.5391 6.06577 41.9142C6.44084 42.2893 6.94955 42.5 7.47998 42.5H40.52C41.0504 42.5 41.5591 42.2893 41.9342 41.9142C42.3093 41.5391 42.52 41.0304 42.52 40.5V7.5C42.52 6.96957 42.3093 6.46086 41.9342 6.08579C41.5591 5.71071 41.0504 5.5 40.52 5.5H7.47998Z" stroke="#545454" stroke-linecap="round" stroke-linejoin="round"/>
<path d="M40.0573 10.3472L24 26.3749L7.94263 10.3472" stroke="#545454" stroke-linecap="round" stroke-linejoin="round"/>
</svg>
