<svg width="33" height="33" viewBox="0 0 33 33" fill="none" xmlns="http://www.w3.org/2000/svg">
<path d="M16.5 28.93V12.9767C16.5 12.5323 16.5876 12.0922 16.7579 11.6817C16.9282 11.2712 17.1778 10.8983 17.4923 10.5843C17.8069 10.2704 18.1803 10.0215 18.5911 9.85206C19.002 9.68259 19.4422 9.59581 19.8867 9.59669C21.5467 9.59669 22.5867 10.09 23.3 11.01M13.6333 16.1234H20.4" stroke="#545454" stroke-linecap="round" stroke-linejoin="round"/>
<path d="M5.48665 4.26343C5.13303 4.26343 4.79389 4.4039 4.54384 4.65395C4.2938 4.904 4.15332 5.24314 4.15332 5.59676V27.5968C4.15332 27.9504 4.2938 28.2895 4.54384 28.5396C4.79389 28.7896 5.13303 28.9301 5.48665 28.9301H27.5133C27.8669 28.9301 28.2061 28.7896 28.4561 28.5396C28.7062 28.2895 28.8467 27.9504 28.8467 27.5968V5.59676C28.8467 5.24314 28.7062 4.904 28.4561 4.65395C28.2061 4.4039 27.8669 4.26343 27.5133 4.26343H5.48665Z" stroke="#545454" stroke-linecap="round" stroke-linejoin="round"/>
</svg>
