<svg width="33" height="33" viewBox="0 0 33 33" fill="none" xmlns="http://www.w3.org/2000/svg">
<path d="M24.0867 7.56996C23.798 7.56603 23.5145 7.6478 23.2723 7.80494C23.03 7.96207 22.8398 8.18751 22.7257 8.45275C22.6116 8.71798 22.5787 9.0111 22.6311 9.29505C22.6836 9.57899 22.819 9.84101 23.0204 10.048C23.2218 10.2549 23.48 10.3975 23.7624 10.4577C24.0448 10.5179 24.3387 10.4931 24.6069 10.3862C24.8752 10.2794 25.1058 10.0954 25.2695 9.85759C25.4332 9.61974 25.5227 9.33868 25.5267 9.04996V9.00996C25.5232 8.62912 25.3704 8.26487 25.1011 7.99557C24.8318 7.72627 24.4675 7.57344 24.0867 7.56996Z" stroke="#545454" stroke-linecap="round" stroke-linejoin="round"/>
<path d="M27.5333 4.26337H5.46666C5.11884 4.27206 4.78821 4.41637 4.54532 4.66548C4.30244 4.91459 4.16655 5.24878 4.16666 5.5967V27.6634C4.16666 28.017 4.30713 28.3561 4.55718 28.6062C4.80723 28.8562 5.14637 28.9967 5.49999 28.9967H27.5667C27.9203 28.9967 28.2594 28.8562 28.5095 28.6062C28.7595 28.3561 28.9 28.017 28.9 27.6634V5.56337C28.8957 5.38825 28.8569 5.21571 28.7859 5.05559C28.7148 4.89547 28.6129 4.75092 28.486 4.6302C28.3591 4.50947 28.2096 4.41493 28.0462 4.35199C27.8827 4.28905 27.7084 4.25893 27.5333 4.26337Z" stroke="#545454" stroke-linecap="round" stroke-linejoin="round"/>
<path d="M16.5 11.0767C15.4083 11.0767 14.341 11.4004 13.4333 12.0069C12.5255 12.6135 11.818 13.4756 11.4002 14.4842C10.9824 15.4929 10.8731 16.6028 11.0861 17.6736C11.2991 18.7443 11.8248 19.7279 12.5968 20.4999C13.3688 21.2719 14.3523 21.7976 15.4231 22.0106C16.4939 22.2236 17.6038 22.1143 18.6124 21.6965C19.6211 21.2787 20.4832 20.5712 21.0897 19.6634C21.6963 18.7556 22.02 17.6884 22.02 16.5967C22.02 15.1327 21.4384 13.7286 20.4032 12.6934C19.368 11.6582 17.964 11.0767 16.5 11.0767Z" stroke="#545454" stroke-linecap="round" stroke-linejoin="round"/>
</svg>
