<svg width="48" height="48" viewBox="0 0 48 48" fill="none" xmlns="http://www.w3.org/2000/svg">
<path d="M15.75 15.5C16.1642 15.5 16.5 15.1642 16.5 14.75C16.5 14.3358 16.1642 14 15.75 14C15.3358 14 15 14.3358 15 14.75C15 15.1642 15.3358 15.5 15.75 15.5Z" fill="#545454"/>
<path d="M15.75 18.22V33.2M33.22 33.2V23.59C33.2174 22.0472 32.6033 20.5684 31.5124 19.4775C30.4216 18.3867 28.9427 17.7726 27.4 17.77C25.8555 17.77 24.3741 18.3828 23.2811 19.474C22.188 20.5652 21.5726 22.0455 21.57 23.59M21.57 23.59V33.2M21.57 23.59V18.22" stroke="#545454" stroke-linecap="round" stroke-linejoin="round"/>
<path d="M40.0541 6H7.94595C7.42985 6 6.93489 6.20502 6.56995 6.56995C6.20502 6.93489 6 7.42985 6 7.94595V40.0541C6 40.5702 6.20502 41.0651 6.56995 41.43C6.93489 41.795 7.42985 42 7.94595 42H40.0541C40.5702 42 41.0651 41.795 41.43 41.43C41.795 41.0651 42 40.5702 42 40.0541V7.94595C42 7.42985 41.795 6.93489 41.43 6.56995C41.0651 6.20502 40.5702 6 40.0541 6Z" stroke="#545454" stroke-linecap="round" stroke-linejoin="round"/>
</svg>
