<svg width="48" height="48" viewBox="0 0 48 48" fill="none" xmlns="http://www.w3.org/2000/svg">
<path d="M40.55 5.5H7.45C6.92828 5.51305 6.43233 5.72951 6.068 6.10317C5.70367 6.47684 5.49984 6.97812 5.5 7.5V40.6C5.5 41.1304 5.71071 41.6391 6.08579 42.0142C6.46086 42.3893 6.96957 42.6 7.5 42.6H40.6C41.1304 42.6 41.6391 42.3893 42.0142 42.0142C42.3893 41.6391 42.6 41.1304 42.6 40.6V7.45C42.5935 7.18733 42.5353 6.92851 42.4288 6.68834C42.3222 6.44816 42.1694 6.23133 41.979 6.05024C41.7887 5.86915 41.5645 5.72735 41.3193 5.63294C41.0741 5.53852 40.8127 5.49335 40.55 5.5Z" stroke="#545454" stroke-linecap="round" stroke-linejoin="round"/>
<path d="M24.0042 10.5C16.5381 10.5082 10.4918 16.5638 10.5 24.0259C10.5025 26.2902 11.0742 28.5176 12.1628 30.5035L11.1263 36.8699L17.4961 35.834C24.0356 39.419 32.246 37.0275 35.8329 30.4909C39.4199 23.9543 37.0277 15.7495 30.4877 12.1638C28.5006 11.0743 26.2706 10.5022 24.0042 10.5ZM17.2511 16.6341H20.9323C21.0989 16.6341 21.2587 16.7003 21.3765 16.818C21.4943 16.9358 21.5605 17.0955 21.5605 17.262C21.5399 18.0993 21.6807 18.9328 21.9751 19.7169C22.1019 19.9794 22.1298 20.2788 22.0536 20.5602C21.9775 20.8415 21.8024 21.0861 21.5605 21.2489L20.2727 22.5046C20.8437 23.619 21.5903 24.6345 22.4839 25.512C23.3548 26.4197 24.3667 27.1808 25.4804 27.766L26.7368 26.4789C27.365 25.8511 27.6539 25.8511 28.2695 26.0645C29.0541 26.3588 29.888 26.4995 30.7258 26.4789C30.8899 26.4866 31.0453 26.5552 31.1615 26.6713C31.2777 26.7874 31.3463 26.9427 31.3539 27.1068V30.786C31.3463 30.9501 31.2777 31.1053 31.1615 31.2215C31.0453 31.3376 30.8899 31.4062 30.7258 31.4139C27.0305 31.2529 23.5278 29.7219 20.9009 27.1193C18.2929 24.4966 16.7603 20.9941 16.6041 17.2997C16.6056 17.1269 16.6737 16.9613 16.7942 16.8373C16.9147 16.7134 17.0783 16.6406 17.2511 16.6341Z" stroke="#545454" stroke-linecap="round" stroke-linejoin="round"/>
</svg>
